<svg xmlns="http://www.w3.org/2000/svg" viewBox="0 0 264.66 260.17"><defs><style>.cls-1{fill:#e4e7ea;}.cls-2{fill:#eef0f2;}.cls-3{fill:#dcdfe3;}.cls-4{fill:#d5d8db;}</style></defs><title>box_1</title><g id="Layer_2" data-name="Layer 2"><g id="Layer_1-2" data-name="Layer 1"><path class="cls-1" d="M221.58,101.18c8.41,1,16.82,2,25.23,2.94,5.66.64,11.33,1.18,17.85,1.85-5.91,3.81-11.18,7.23-16.48,10.62-7.88,5-15.72,10.17-23.69,15.07a6.11,6.11,0,0,0-3.32,6c.13,21.73,0,43.46.14,65.2a5.65,5.65,0,0,1-3.18,5.59q-41.31,25-82.49,50.25c-1.13.69-2.13,1.85-3.71,1.35l0-95.94c0-8,0-8.22-7.67-7.47-9.37.92-18.67,2.57-28,3.36-4.24.36-8.48,2.45-13-.56-13.06-8.69-26.41-16.95-39.65-25.38L2.18,107.71,0,105.93c11.08-1.16,21.53-2.08,31.92-3.45,3.66-.48,7.7.51,10.95-2.17,1.61.11,2.8-.79,4.08-1.57C69.43,85,92,71.45,114.38,57.62c5.88-3.63,12.2-6.63,17.51-11.19l.8,0,.76,1.38c-1.32,1.22-.74,2.82-.74,4.24q0,49.41,0,98.81c0,1.17-.4,2.44.48,3.74a21.68,21.68,0,0,0,2.34-1.07q23.72-14.49,47.43-29C195.81,116.72,208.71,109,221.58,101.18Z"/><path class="cls-2" d="M43.54,134.06c13.24,8.43,26.59,16.69,39.65,25.38,4.51,3,8.75.92,13,.56,9.38-.79,18.68-2.44,28.05-3.36,7.65-.75,7.67-.51,7.67,7.47l0,95.94c-3.26-1-5.87-3.19-8.72-4.92q-35.46-21.54-70.84-43.19c-.95-.58-2-1.08-2.94-1.61-5.74-2.24-6.27-6.75-6.1-12.23.34-11.09,0-22.21,0-33.32Q43.43,149.42,43.54,134.06Z"/><path class="cls-1" d="M133.45,47.83l-.76-1.38C141.35,31.72,150.05,17,158.62,2.24c1.24-2.14,2.2-2.7,4.58-1.49q47.54,24.11,95.16,48a12.7,12.7,0,0,1,1.74,1.3q-17.51,23.08-35,46.15c-1.06,1.38-2.17,2.72-3.26,4.07a5.47,5.47,0,0,1-3.5-1.08c-22.81-14-45.57-28-68.45-41.9C144.47,54.05,139.42,50.13,133.45,47.83Z"/><path class="cls-2" d="M131.89,46.43C126.58,51,120.26,54,114.38,57.62,92,71.45,69.43,85,47,98.74c-1.28.78-2.47,1.68-4.08,1.57C30.65,84.21,18.47,68.07,6.16,52c-1.95-2.55-.28-3,1.47-3.92l67.05-34C83.46,9.61,92.25,5.15,101,.62c1.71-.88,2.74-1,3.9.92C113.82,16.55,122.87,31.48,131.89,46.43Z"/><path class="cls-2" d="M133.45,47.83c6,2.3,11,6.22,16.42,9.49,22.88,13.87,45.64,27.92,68.45,41.9a5.47,5.47,0,0,0,3.5,1.08l-.24.88C208.71,109,195.81,116.72,183,124.55q-23.75,14.46-47.43,29a21.68,21.68,0,0,1-2.34,1.07c-.88-1.3-.48-2.57-.48-3.74q0-49.41,0-98.81C132.71,50.65,132.13,49.05,133.45,47.83Z"/><path class="cls-3" d="M0,105.93l42.87-5.62,87.41,56.36s-34.45,3.74-38.49,4-5.47.77-10.35-2.43S0,105.93,0,105.93Z"/><polygon class="cls-4" points="221.58 101.18 264.66 105.97 175.81 164.25 133.19 155.62 221.58 101.18"/></g></g></svg>