<?xml version="1.0" encoding="utf-8"?>
<!-- Generator: Adobe Illustrator 24.0.1, SVG Export Plug-In . SVG Version: 6.00 Build 0)  -->
<svg version="1.1" id="Layer_1" xmlns="http://www.w3.org/2000/svg" xmlns:xlink="http://www.w3.org/1999/xlink" x="0px" y="0px"
	 viewBox="0 0 448 512" style="enable-background:new 0 0 448 512;" xml:space="preserve">
<style type="text/css">
	.st0{fill:#D84141;}
</style>
<path class="st0" d="M432,80h-82.4l-34-56.7C306.9,8.8,291.3,0,274.4,0H173.6c-16.9,0-32.5,8.8-41.2,23.3L98.4,80H16
	C7.2,80,0,87.2,0,96v16c0,8.8,7.2,16,16,16h16l21.2,339c1.6,25.3,22.6,45,47.9,45h245.8c25.3,0,46.3-19.7,47.9-45L416,128h16
	c8.8,0,16-7.2,16-16V96C448,87.2,440.8,80,432,80z M173.6,48h100.8l19.2,32H154.4L173.6,48z M346.9,464H101.1l-21-336h287.8
	L346.9,464z"/>
</svg>
